<mxfile host="app.diagrams.net" modified="2024-03-06T14:23:10.484Z" agent="Mozilla/5.0 (Windows NT 10.0; Win64; x64) AppleWebKit/537.36 (KHTML, like Gecko) Chrome/122.0.0.0 Safari/537.36 Edg/122.0.0.0" etag="H02wO7pKPNzRTBlgNtpg" version="24.0.2" type="device">
  <diagram name="Page-1" id="ZedhkWaPzQK5YAR3ZAt7">
    <mxGraphModel dx="1155" dy="654" grid="1" gridSize="10" guides="1" tooltips="1" connect="1" arrows="1" fold="1" page="1" pageScale="1" pageWidth="850" pageHeight="1100" math="0" shadow="0">
      <root>
        <mxCell id="0" />
        <mxCell id="1" parent="0" />
        <mxCell id="ZSQOvw31jF92kkXXcma_-46" value="" style="edgeStyle=orthogonalEdgeStyle;rounded=0;orthogonalLoop=1;jettySize=auto;html=1;fontFamily=Helvetica;fontSize=12;fontColor=default;" parent="1" target="ZSQOvw31jF92kkXXcma_-44" edge="1">
          <mxGeometry relative="1" as="geometry">
            <mxPoint x="640" y="295" as="sourcePoint" />
          </mxGeometry>
        </mxCell>
        <mxCell id="ZSQOvw31jF92kkXXcma_-31" value="Player" style="swimlane;fontStyle=0;childLayout=stackLayout;horizontal=1;startSize=30;horizontalStack=0;resizeParent=1;resizeParentMax=0;resizeLast=0;collapsible=1;marginBottom=0;whiteSpace=wrap;html=1;rounded=0;align=center;verticalAlign=middle;fontFamily=Helvetica;fontSize=12;fontColor=default;fillColor=none;gradientColor=none;" parent="1" vertex="1">
          <mxGeometry x="630" y="25" width="140" height="90" as="geometry" />
        </mxCell>
        <mxCell id="ZSQOvw31jF92kkXXcma_-32" value="Name" style="text;strokeColor=none;fillColor=none;align=left;verticalAlign=middle;spacingLeft=4;spacingRight=4;overflow=hidden;points=[[0,0.5],[1,0.5]];portConstraint=eastwest;rotatable=0;whiteSpace=wrap;html=1;fontFamily=Helvetica;fontSize=12;fontColor=default;" parent="ZSQOvw31jF92kkXXcma_-31" vertex="1">
          <mxGeometry y="30" width="140" height="30" as="geometry" />
        </mxCell>
        <mxCell id="ZSQOvw31jF92kkXXcma_-33" value="HitPoints" style="text;strokeColor=none;fillColor=none;align=left;verticalAlign=middle;spacingLeft=4;spacingRight=4;overflow=hidden;points=[[0,0.5],[1,0.5]];portConstraint=eastwest;rotatable=0;whiteSpace=wrap;html=1;fontFamily=Helvetica;fontSize=12;fontColor=default;" parent="ZSQOvw31jF92kkXXcma_-31" vertex="1">
          <mxGeometry y="60" width="140" height="30" as="geometry" />
        </mxCell>
        <mxCell id="ZSQOvw31jF92kkXXcma_-38" value="1,1" style="text;html=1;align=center;verticalAlign=middle;resizable=0;points=[];autosize=1;strokeColor=none;fillColor=none;fontFamily=Helvetica;fontSize=12;fontColor=default;" parent="1" vertex="1">
          <mxGeometry x="650" y="120" width="40" height="30" as="geometry" />
        </mxCell>
        <mxCell id="ZSQOvw31jF92kkXXcma_-41" value="" style="edgeStyle=orthogonalEdgeStyle;rounded=0;orthogonalLoop=1;jettySize=auto;html=1;fontFamily=Helvetica;fontSize=12;fontColor=default;" parent="1" source="ZSQOvw31jF92kkXXcma_-31" target="ZSQOvw31jF92kkXXcma_-35" edge="1">
          <mxGeometry relative="1" as="geometry">
            <mxPoint x="700" y="80" as="sourcePoint" />
            <mxPoint x="670" y="168" as="targetPoint" />
          </mxGeometry>
        </mxCell>
        <mxCell id="ZSQOvw31jF92kkXXcma_-43" value="" style="edgeStyle=orthogonalEdgeStyle;rounded=0;orthogonalLoop=1;jettySize=auto;html=1;fontFamily=Helvetica;fontSize=12;fontColor=default;" parent="1" source="ZSQOvw31jF92kkXXcma_-35" edge="1">
          <mxGeometry relative="1" as="geometry">
            <mxPoint x="700" y="265" as="targetPoint" />
          </mxGeometry>
        </mxCell>
        <mxCell id="ZSQOvw31jF92kkXXcma_-35" value="Has" style="rhombus;whiteSpace=wrap;html=1;rounded=0;align=center;verticalAlign=middle;fontFamily=Helvetica;fontSize=12;fontColor=default;fillColor=none;gradientColor=none;" parent="1" vertex="1">
          <mxGeometry x="660" y="150" width="80" height="80" as="geometry" />
        </mxCell>
        <mxCell id="ZSQOvw31jF92kkXXcma_-45" value="" style="edgeStyle=orthogonalEdgeStyle;rounded=0;orthogonalLoop=1;jettySize=auto;html=1;fontFamily=Helvetica;fontSize=12;fontColor=default;" parent="1" source="ZSQOvw31jF92kkXXcma_-44" edge="1">
          <mxGeometry relative="1" as="geometry">
            <mxPoint x="500" y="295" as="targetPoint" />
          </mxGeometry>
        </mxCell>
        <mxCell id="ZSQOvw31jF92kkXXcma_-44" value="Contains" style="rhombus;whiteSpace=wrap;html=1;rounded=0;align=center;verticalAlign=middle;fontFamily=Helvetica;fontSize=12;fontColor=default;fillColor=none;gradientColor=none;" parent="1" vertex="1">
          <mxGeometry x="530" y="255" width="80" height="80" as="geometry" />
        </mxCell>
        <mxCell id="ZSQOvw31jF92kkXXcma_-47" value="0,N" style="text;html=1;align=center;verticalAlign=middle;whiteSpace=wrap;rounded=0;fontFamily=Helvetica;fontSize=12;fontColor=default;" parent="1" vertex="1">
          <mxGeometry x="580" y="255" width="60" height="30" as="geometry" />
        </mxCell>
        <mxCell id="ZSQOvw31jF92kkXXcma_-49" value="0,1" style="text;html=1;align=center;verticalAlign=middle;whiteSpace=wrap;rounded=0;fontFamily=Helvetica;fontSize=12;fontColor=default;" parent="1" vertex="1">
          <mxGeometry x="500" y="255" width="60" height="30" as="geometry" />
        </mxCell>
        <mxCell id="ZSQOvw31jF92kkXXcma_-66" style="edgeStyle=orthogonalEdgeStyle;rounded=0;orthogonalLoop=1;jettySize=auto;html=1;exitX=0.5;exitY=1;exitDx=0;exitDy=0;entryX=0;entryY=0.5;entryDx=0;entryDy=0;fontFamily=Helvetica;fontSize=12;fontColor=default;" parent="1" source="ZSQOvw31jF92kkXXcma_-51" target="ZSQOvw31jF92kkXXcma_-58" edge="1">
          <mxGeometry relative="1" as="geometry" />
        </mxCell>
        <mxCell id="ZSQOvw31jF92kkXXcma_-116" value="&lt;div&gt;0,1&lt;/div&gt;" style="edgeLabel;html=1;align=center;verticalAlign=middle;resizable=0;points=[];rounded=0;fontFamily=Helvetica;fontSize=12;fontColor=default;fillColor=none;gradientColor=none;" parent="ZSQOvw31jF92kkXXcma_-66" vertex="1" connectable="0">
          <mxGeometry x="-0.1538" y="1" relative="1" as="geometry">
            <mxPoint x="9" y="-5" as="offset" />
          </mxGeometry>
        </mxCell>
        <mxCell id="ZSQOvw31jF92kkXXcma_-51" value="Contains" style="rhombus;whiteSpace=wrap;html=1;rounded=0;align=center;verticalAlign=middle;fontFamily=Helvetica;fontSize=12;fontColor=default;fillColor=none;gradientColor=none;" parent="1" vertex="1">
          <mxGeometry x="270" y="175" width="80" height="55" as="geometry" />
        </mxCell>
        <mxCell id="ZSQOvw31jF92kkXXcma_-56" value="Item" style="swimlane;fontStyle=0;childLayout=stackLayout;horizontal=1;startSize=30;horizontalStack=0;resizeParent=1;resizeParentMax=0;resizeLast=0;collapsible=1;marginBottom=0;whiteSpace=wrap;html=1;rounded=0;align=center;verticalAlign=middle;fontFamily=Helvetica;fontSize=12;fontColor=default;fillColor=none;gradientColor=none;" parent="1" vertex="1">
          <mxGeometry x="360" y="235" width="140" height="120" as="geometry" />
        </mxCell>
        <mxCell id="ZSQOvw31jF92kkXXcma_-57" value="Name" style="text;strokeColor=none;fillColor=none;align=left;verticalAlign=middle;spacingLeft=4;spacingRight=4;overflow=hidden;points=[[0,0.5],[1,0.5]];portConstraint=eastwest;rotatable=0;whiteSpace=wrap;html=1;fontFamily=Helvetica;fontSize=12;fontColor=default;" parent="ZSQOvw31jF92kkXXcma_-56" vertex="1">
          <mxGeometry y="30" width="140" height="30" as="geometry" />
        </mxCell>
        <mxCell id="ZSQOvw31jF92kkXXcma_-58" value="Description" style="text;strokeColor=none;fillColor=none;align=left;verticalAlign=middle;spacingLeft=4;spacingRight=4;overflow=hidden;points=[[0,0.5],[1,0.5]];portConstraint=eastwest;rotatable=0;whiteSpace=wrap;html=1;fontFamily=Helvetica;fontSize=12;fontColor=default;" parent="ZSQOvw31jF92kkXXcma_-56" vertex="1">
          <mxGeometry y="60" width="140" height="30" as="geometry" />
        </mxCell>
        <mxCell id="ZSQOvw31jF92kkXXcma_-59" value="Weight" style="text;strokeColor=none;fillColor=none;align=left;verticalAlign=middle;spacingLeft=4;spacingRight=4;overflow=hidden;points=[[0,0.5],[1,0.5]];portConstraint=eastwest;rotatable=0;whiteSpace=wrap;html=1;fontFamily=Helvetica;fontSize=12;fontColor=default;" parent="ZSQOvw31jF92kkXXcma_-56" vertex="1">
          <mxGeometry y="90" width="140" height="30" as="geometry" />
        </mxCell>
        <mxCell id="ZSQOvw31jF92kkXXcma_-62" value="Bag" style="swimlane;fontStyle=0;childLayout=stackLayout;horizontal=1;startSize=30;horizontalStack=0;resizeParent=1;resizeParentMax=0;resizeLast=0;collapsible=1;marginBottom=0;whiteSpace=wrap;html=1;rounded=0;align=center;verticalAlign=middle;fontFamily=Helvetica;fontSize=12;fontColor=default;fillColor=none;gradientColor=none;" parent="1" vertex="1">
          <mxGeometry x="640" y="260" width="140" height="60" as="geometry" />
        </mxCell>
        <mxCell id="ZSQOvw31jF92kkXXcma_-63" value="Slots" style="text;strokeColor=none;fillColor=none;align=left;verticalAlign=middle;spacingLeft=4;spacingRight=4;overflow=hidden;points=[[0,0.5],[1,0.5]];portConstraint=eastwest;rotatable=0;whiteSpace=wrap;html=1;fontFamily=Helvetica;fontSize=12;fontColor=default;" parent="ZSQOvw31jF92kkXXcma_-62" vertex="1">
          <mxGeometry y="30" width="140" height="30" as="geometry" />
        </mxCell>
        <mxCell id="ZSQOvw31jF92kkXXcma_-79" value="0,N" style="edgeStyle=orthogonalEdgeStyle;rounded=0;orthogonalLoop=1;jettySize=auto;html=1;fontFamily=Helvetica;fontSize=12;fontColor=default;" parent="1" source="ZSQOvw31jF92kkXXcma_-71" target="ZSQOvw31jF92kkXXcma_-78" edge="1">
          <mxGeometry y="10" relative="1" as="geometry">
            <mxPoint as="offset" />
          </mxGeometry>
        </mxCell>
        <mxCell id="jyRte5J3Xe2hsoVWeQT7-9" style="edgeStyle=orthogonalEdgeStyle;rounded=0;orthogonalLoop=1;jettySize=auto;html=1;exitX=0;exitY=0.5;exitDx=0;exitDy=0;entryX=1;entryY=0;entryDx=0;entryDy=0;" edge="1" parent="1" source="ZSQOvw31jF92kkXXcma_-71" target="jyRte5J3Xe2hsoVWeQT7-7">
          <mxGeometry relative="1" as="geometry" />
        </mxCell>
        <mxCell id="ZSQOvw31jF92kkXXcma_-71" value="Room" style="swimlane;fontStyle=0;childLayout=stackLayout;horizontal=1;startSize=30;horizontalStack=0;resizeParent=1;resizeParentMax=0;resizeLast=0;collapsible=1;marginBottom=0;whiteSpace=wrap;html=1;rounded=0;align=center;verticalAlign=middle;fontFamily=Helvetica;fontSize=12;fontColor=default;fillColor=none;gradientColor=none;" parent="1" vertex="1">
          <mxGeometry x="120" y="40" width="140" height="60" as="geometry" />
        </mxCell>
        <mxCell id="ZSQOvw31jF92kkXXcma_-72" value="Name" style="text;strokeColor=none;fillColor=none;align=left;verticalAlign=middle;spacingLeft=4;spacingRight=4;overflow=hidden;points=[[0,0.5],[1,0.5]];portConstraint=eastwest;rotatable=0;whiteSpace=wrap;html=1;fontFamily=Helvetica;fontSize=12;fontColor=default;" parent="ZSQOvw31jF92kkXXcma_-71" vertex="1">
          <mxGeometry y="30" width="140" height="30" as="geometry" />
        </mxCell>
        <mxCell id="ZSQOvw31jF92kkXXcma_-75" style="edgeStyle=orthogonalEdgeStyle;rounded=0;orthogonalLoop=1;jettySize=auto;html=1;exitX=1;exitY=0.5;exitDx=0;exitDy=0;entryX=0.5;entryY=0;entryDx=0;entryDy=0;fontFamily=Helvetica;fontSize=12;fontColor=default;" parent="1" source="ZSQOvw31jF92kkXXcma_-72" target="ZSQOvw31jF92kkXXcma_-51" edge="1">
          <mxGeometry relative="1" as="geometry" />
        </mxCell>
        <mxCell id="ZSQOvw31jF92kkXXcma_-115" value="0,N" style="edgeLabel;html=1;align=center;verticalAlign=middle;resizable=0;points=[];rounded=0;fontFamily=Helvetica;fontSize=12;fontColor=default;fillColor=none;gradientColor=none;" parent="ZSQOvw31jF92kkXXcma_-75" vertex="1" connectable="0">
          <mxGeometry x="0.1714" y="3" relative="1" as="geometry">
            <mxPoint x="7" y="-7" as="offset" />
          </mxGeometry>
        </mxCell>
        <mxCell id="ZSQOvw31jF92kkXXcma_-80" value="" style="edgeStyle=orthogonalEdgeStyle;rounded=0;orthogonalLoop=1;jettySize=auto;html=1;fontFamily=Helvetica;fontSize=12;fontColor=default;endArrow=none;endFill=0;entryX=0.5;entryY=0;entryDx=0;entryDy=0;" parent="1" source="ZSQOvw31jF92kkXXcma_-78" edge="1" target="ZSQOvw31jF92kkXXcma_-81">
          <mxGeometry relative="1" as="geometry">
            <mxPoint x="190" y="240" as="targetPoint" />
          </mxGeometry>
        </mxCell>
        <mxCell id="ZSQOvw31jF92kkXXcma_-104" value="0,1" style="edgeLabel;html=1;align=center;verticalAlign=middle;resizable=0;points=[];rounded=0;fontFamily=Helvetica;fontSize=12;fontColor=default;fillColor=none;gradientColor=none;" parent="ZSQOvw31jF92kkXXcma_-80" vertex="1" connectable="0">
          <mxGeometry x="-0.4931" y="4" relative="1" as="geometry">
            <mxPoint x="6" y="-2" as="offset" />
          </mxGeometry>
        </mxCell>
        <mxCell id="ZSQOvw31jF92kkXXcma_-78" value="Contains" style="rhombus;whiteSpace=wrap;html=1;rounded=0;align=center;verticalAlign=middle;fontFamily=Helvetica;fontSize=12;fontColor=default;fillColor=none;gradientColor=none;" parent="1" vertex="1">
          <mxGeometry x="150" y="125" width="80" height="60" as="geometry" />
        </mxCell>
        <mxCell id="ZSQOvw31jF92kkXXcma_-81" value="Animals" style="swimlane;fontStyle=0;childLayout=stackLayout;horizontal=1;startSize=30;horizontalStack=0;resizeParent=1;resizeParentMax=0;resizeLast=0;collapsible=1;marginBottom=0;whiteSpace=wrap;html=1;rounded=0;align=center;verticalAlign=middle;fontFamily=Helvetica;fontSize=12;fontColor=default;fillColor=none;gradientColor=none;" parent="1" vertex="1">
          <mxGeometry x="120" y="208" width="140" height="210" as="geometry" />
        </mxCell>
        <mxCell id="ZSQOvw31jF92kkXXcma_-82" value="Name" style="text;strokeColor=none;fillColor=none;align=left;verticalAlign=middle;spacingLeft=4;spacingRight=4;overflow=hidden;points=[[0,0.5],[1,0.5]];portConstraint=eastwest;rotatable=0;whiteSpace=wrap;html=1;fontFamily=Helvetica;fontSize=12;fontColor=default;" parent="ZSQOvw31jF92kkXXcma_-81" vertex="1">
          <mxGeometry y="30" width="140" height="30" as="geometry" />
        </mxCell>
        <mxCell id="ZSQOvw31jF92kkXXcma_-83" value="FavoriteFood" style="text;strokeColor=none;fillColor=none;align=left;verticalAlign=middle;spacingLeft=4;spacingRight=4;overflow=hidden;points=[[0,0.5],[1,0.5]];portConstraint=eastwest;rotatable=0;whiteSpace=wrap;html=1;fontFamily=Helvetica;fontSize=12;fontColor=default;" parent="ZSQOvw31jF92kkXXcma_-81" vertex="1">
          <mxGeometry y="60" width="140" height="30" as="geometry" />
        </mxCell>
        <mxCell id="ZSQOvw31jF92kkXXcma_-84" value="Age" style="text;strokeColor=none;fillColor=none;align=left;verticalAlign=middle;spacingLeft=4;spacingRight=4;overflow=hidden;points=[[0,0.5],[1,0.5]];portConstraint=eastwest;rotatable=0;whiteSpace=wrap;html=1;fontFamily=Helvetica;fontSize=12;fontColor=default;" parent="ZSQOvw31jF92kkXXcma_-81" vertex="1">
          <mxGeometry y="90" width="140" height="30" as="geometry" />
        </mxCell>
        <mxCell id="ZSQOvw31jF92kkXXcma_-85" value="EntryDate" style="text;strokeColor=none;fillColor=none;align=left;verticalAlign=middle;spacingLeft=4;spacingRight=4;overflow=hidden;points=[[0,0.5],[1,0.5]];portConstraint=eastwest;rotatable=0;whiteSpace=wrap;html=1;fontFamily=Helvetica;fontSize=12;fontColor=default;" parent="ZSQOvw31jF92kkXXcma_-81" vertex="1">
          <mxGeometry y="120" width="140" height="30" as="geometry" />
        </mxCell>
        <mxCell id="ZSQOvw31jF92kkXXcma_-86" value="Weight" style="text;strokeColor=none;fillColor=none;align=left;verticalAlign=middle;spacingLeft=4;spacingRight=4;overflow=hidden;points=[[0,0.5],[1,0.5]];portConstraint=eastwest;rotatable=0;whiteSpace=wrap;html=1;fontFamily=Helvetica;fontSize=12;fontColor=default;" parent="ZSQOvw31jF92kkXXcma_-81" vertex="1">
          <mxGeometry y="150" width="140" height="30" as="geometry" />
        </mxCell>
        <mxCell id="ZSQOvw31jF92kkXXcma_-87" value="Height" style="text;strokeColor=none;fillColor=none;align=left;verticalAlign=middle;spacingLeft=4;spacingRight=4;overflow=hidden;points=[[0,0.5],[1,0.5]];portConstraint=eastwest;rotatable=0;whiteSpace=wrap;html=1;fontFamily=Helvetica;fontSize=12;fontColor=default;" parent="ZSQOvw31jF92kkXXcma_-81" vertex="1">
          <mxGeometry y="180" width="140" height="30" as="geometry" />
        </mxCell>
        <mxCell id="jyRte5J3Xe2hsoVWeQT7-6" style="edgeStyle=orthogonalEdgeStyle;rounded=0;orthogonalLoop=1;jettySize=auto;html=1;exitX=0.5;exitY=0;exitDx=0;exitDy=0;endArrow=none;endFill=0;" edge="1" parent="1" source="jyRte5J3Xe2hsoVWeQT7-1" target="ZSQOvw31jF92kkXXcma_-81">
          <mxGeometry relative="1" as="geometry" />
        </mxCell>
        <mxCell id="jyRte5J3Xe2hsoVWeQT7-1" value="Species" style="swimlane;fontStyle=0;childLayout=stackLayout;horizontal=1;startSize=30;horizontalStack=0;resizeParent=1;resizeParentMax=0;resizeLast=0;collapsible=1;marginBottom=0;whiteSpace=wrap;html=1;" vertex="1" parent="1">
          <mxGeometry x="120" y="440" width="140" height="120" as="geometry" />
        </mxCell>
        <mxCell id="jyRte5J3Xe2hsoVWeQT7-2" value="Tailed Animals" style="text;strokeColor=none;fillColor=none;align=left;verticalAlign=middle;spacingLeft=4;spacingRight=4;overflow=hidden;points=[[0,0.5],[1,0.5]];portConstraint=eastwest;rotatable=0;whiteSpace=wrap;html=1;" vertex="1" parent="jyRte5J3Xe2hsoVWeQT7-1">
          <mxGeometry y="30" width="140" height="30" as="geometry" />
        </mxCell>
        <mxCell id="jyRte5J3Xe2hsoVWeQT7-3" value="Winged Animals" style="text;strokeColor=none;fillColor=none;align=left;verticalAlign=middle;spacingLeft=4;spacingRight=4;overflow=hidden;points=[[0,0.5],[1,0.5]];portConstraint=eastwest;rotatable=0;whiteSpace=wrap;html=1;" vertex="1" parent="jyRte5J3Xe2hsoVWeQT7-1">
          <mxGeometry y="60" width="140" height="30" as="geometry" />
        </mxCell>
        <mxCell id="jyRte5J3Xe2hsoVWeQT7-4" value="Item 3" style="text;strokeColor=none;fillColor=none;align=left;verticalAlign=middle;spacingLeft=4;spacingRight=4;overflow=hidden;points=[[0,0.5],[1,0.5]];portConstraint=eastwest;rotatable=0;whiteSpace=wrap;html=1;" vertex="1" parent="jyRte5J3Xe2hsoVWeQT7-1">
          <mxGeometry y="90" width="140" height="30" as="geometry" />
        </mxCell>
        <mxCell id="jyRte5J3Xe2hsoVWeQT7-10" style="edgeStyle=orthogonalEdgeStyle;rounded=0;orthogonalLoop=1;jettySize=auto;html=1;exitX=0.5;exitY=0;exitDx=0;exitDy=0;entryX=0.5;entryY=0;entryDx=0;entryDy=0;" edge="1" parent="1" source="jyRte5J3Xe2hsoVWeQT7-7" target="ZSQOvw31jF92kkXXcma_-71">
          <mxGeometry relative="1" as="geometry" />
        </mxCell>
        <mxCell id="jyRte5J3Xe2hsoVWeQT7-7" value="Door" style="rhombus;whiteSpace=wrap;html=1;" vertex="1" parent="1">
          <mxGeometry y="45" width="80" height="80" as="geometry" />
        </mxCell>
        <mxCell id="jyRte5J3Xe2hsoVWeQT7-11" value="1,4" style="text;html=1;align=center;verticalAlign=middle;resizable=0;points=[];autosize=1;strokeColor=none;fillColor=none;" vertex="1" parent="1">
          <mxGeometry x="70" y="40" width="40" height="30" as="geometry" />
        </mxCell>
        <mxCell id="jyRte5J3Xe2hsoVWeQT7-12" value="0,1" style="text;html=1;align=center;verticalAlign=middle;resizable=0;points=[];autosize=1;strokeColor=none;fillColor=none;" vertex="1" parent="1">
          <mxGeometry x="660" y="225" width="40" height="30" as="geometry" />
        </mxCell>
      </root>
    </mxGraphModel>
  </diagram>
</mxfile>
